Patient4_TMGait_0pt5_01_left_40_GRF.mot
version=1
nRows=32
nColumns=19
inDegrees=no
endheader
time	F1x	F1y	F1z	M1x	M1y	M1z	F2x	F2y	F2z	M2x	M2y	M2z	EC1x	EC1y	EC1z	EC2x	EC2y	EC2z
53.27	7.7783	9.1723	-11.2983	0.011126	10.8946	17.6292	-45.9862	769.9121	-72.9299	289.0966	75.4346	658.5569	-0.0592	0.0182	-0.0073	-0.0462	0.0165	0.9585
53.2836	5.19	6.9116	-7.5783	-0.22273	7.3246	12.5141	-42.0684	751.7597	-68.7129	280.9015	70.8115	639.9985	-0.0592	0.0182	-0.0073	-0.0462	0.0165	0.9585
53.2971	3.0068	5.0181	-4.4441	-0.43536	4.3154	8.212	-37.6885	733.6421	-64.4892	272.7963	65.8942	620.9443	-0.0592	0.0182	-0.0073	-0.0462	0.0165	0.9585
53.3107	1.3587	3.5983	-2.0633	-0.61411	2.0265	4.9613	-33.0812	717.7373	-60.5733	265.705	60.9935	603.2809	-0.0592	0.0182	-0.0073	-0.0462	0.0165	0.9585
53.3243	0.23685	2.6401	-0.42333	-0.75643	0.44451	2.7359	-28.444	705.8613	-57.1511	260.3611	56.3383	588.5439	-0.0592	0.0182	-0.0073	-0.0462	0.0165	0.9585
53.3379	-0.45761	2.0737	0.58343	-0.86519	-0.53718	1.3812	-23.9023	699.1919	-54.3329	257.2205	52.0891	577.6973	-0.0592	0.0182	-0.0073	-0.0462	0.0165	0.9585
53.3514	-0.83482	1.7912	1.113	-0.93984	-1.0668	0.67575	-19.492	698.1681	-52.159	256.4401	48.3253	571.0636	-0.0592	0.0182	-0.0073	-0.0462	0.0165	0.9585
53.365	-1.0073	1.6884	1.3173	-0.98181	-1.2899	0.41458	-15.1689	702.5404	-50.6168	257.9053	45.0511	568.3996	-0.0592	0.0182	-0.0073	-0.0462	0.0165	0.9585
53.3786	-1.0656	1.6624	1.3334	-0.98738	-1.3394	0.4013	-10.8238	711.4375	-49.641	261.2633	42.1982	568.9661	-0.0592	0.0182	-0.0073	-0.0462	0.0165	0.9585
53.3921	-1.081	1.628	1.2562	-0.95079	-1.3096	0.46671	-6.3365	723.5363	-49.1429	265.9893	39.6638	571.6993	-0.0592	0.0182	-0.0073	-0.0462	0.0165	0.9585
53.4057	-1.1029	1.514	1.1595	-0.86265	-1.2716	0.48857	-1.6311	737.2785	-49.0259	271.4673	37.3462	575.403	-0.0592	0.0182	-0.0073	-0.0462	0.0165	0.9585
53.4193	-1.1427	1.2492	1.0833	-0.71073	-1.2583	0.36569	3.2665	751.0699	-49.1986	277.0626	35.1817	578.9279	-0.0592	0.0182	-0.0073	-0.0462	0.0165	0.9585
53.4329	-1.2036	0.77652	1.0547	-0.48305	-1.2895	0.029016	8.2224	763.4042	-49.5817	282.1689	33.1575	581.2646	-0.0592	0.0182	-0.0073	-0.0462	0.0165	0.9585
53.4464	-1.2572	0.061225	1.0718	-0.17168	-1.3497	-0.57307	13.0324	773.016	-50.1007	286.2688	31.2948	581.6366	-0.0592	0.0182	-0.0073	-0.0462	0.0165	0.9585
53.46	-1.2495	-0.88978	1.1272	0.21949	-1.413	-1.4375	17.4578	779.0382	-50.6751	288.9962	29.626	579.5976	-0.0592	0.0182	-0.0073	-0.0462	0.0165	0.9585
53.4736	-1.0962	-2.0055	1.184	0.66436	-1.4161	-2.4928	21.2902	781.079	-51.2239	290.1682	28.1715	575.0442	-0.0592	0.0182	-0.0073	-0.0462	0.0165	0.9585
53.4871	-0.67912	-3.12	1.1954	1.101	-1.2749	-3.5716	24.3936	779.3013	-51.6906	289.8139	26.9388	568.2547	-0.0592	0.0182	-0.0073	-0.0462	0.0165	0.9585
53.5007	0.12799	-3.9306	1.08	1.4131	-0.86493	-4.3739	26.7287	774.4637	-52.0622	288.1921	25.9286	559.8836	-0.0592	0.0182	-0.0073	-0.0462	0.0165	0.9585
53.5143	1.458	-3.9563	0.75294	1.414	-0.053284	-4.4515	28.3326	767.8114	-52.3683	285.7506	25.1399	550.8793	-0.0592	0.0182	-0.0073	-0.0462	0.0165	0.9585
53.5279	3.4161	-2.4925	0.10581	0.83278	1.3038	-3.164	29.3205	760.7933	-52.6497	283.02	24.5527	542.2841	-0.0592	0.0182	-0.0073	-0.0462	0.0165	0.9585
53.5414	6.0246	1.3717	-0.96187	-0.68163	3.3094	0.32876	29.9088	754.6762	-52.9371	280.4741	24.103	534.9425	-0.0592	0.0182	-0.0073	-0.0462	0.0165	0.9585
53.555	9.1602	8.6895	-2.5419	-3.5361	5.9996	7.0075	30.3553	750.2514	-53.2419	278.4206	23.7025	529.3183	-0.0592	0.0182	-0.0073	-0.0462	0.0165	0.9585
53.5686	12.4517	20.509	-4.6592	-8.1347	9.2517	17.8745	30.9047	747.6254	-53.5451	276.9217	23.2562	525.3562	-0.0592	0.0182	-0.0073	-0.0462	0.0165	0.9585
53.5821	15.1809	37.6014	-7.233	-14.7717	12.7072	33.6933	31.6991	746.1701	-53.782	275.773	22.6794	522.4946	-0.0592	0.0182	-0.0073	-0.0462	0.0165	0.9585
53.5957	16.248	60.1295	-10.0106	-23.5004	15.702	54.7032	32.7525	744.6197	-53.8546	274.5386	21.9154	519.76	-0.0592	0.0182	-0.0073	-0.0462	0.0165	0.9585
53.6093	14.6457	87.624	-12.5886	-34.1226	17.4667	80.5762	33.9974	741.2895	-53.6364	272.632	20.9199	515.9084	-0.0592	0.0182	-0.0073	-0.0462	0.0165	0.9585
53.6229	10.4381	119.3819	-14.4648	-46.3301	17.5349	110.7397	35.3212	734.3723	-53.0057	269.4232	19.6707	509.6391	-0.0592	0.0182	-0.0073	-0.0462	0.0165	0.9585
53.6364	4.5279	154.1393	-15.0143	-59.5745	15.6386	144.0035	36.6148	722.1654	-51.8426	264.3186	18.1406	499.7455	-0.0592	0.0182	-0.0073	-0.0462	0.0165	0.9585
53.65	-2.1155	189.3161	-13.4751	-72.8209	11.4196	177.8301	37.7614	703.242	-50.0634	256.8227	16.3345	485.2525	-0.0592	0.0182	-0.0073	-0.0462	0.0165	0.9585
53.6636	-8.522	222.0018	-9.8436	-84.9739	5.2774	209.318	38.6493	676.691	-47.6045	246.6263	14.2662	465.5645	-0.0592	0.0182	-0.0073	-0.0462	0.0165	0.9585
53.6771	-14.0368	250.7446	-4.8169	-95.5289	-1.8157	236.9842	39.2046	642.3664	-44.5034	233.6898	12.0016	440.6262	-0.0592	0.0182	-0.0073	-0.0462	0.0165	0.9585
53.6907	-18.5154	276.0982	0.76642	-104.7577	-8.9686	261.2459	39.3871	600.9571	-40.8756	218.2686	9.6323	410.9679	-0.0592	0.0182	-0.0073	-0.0462	0.0165	0.9585
